<mxfile host="app.diagrams.net" agent="Mozilla/5.0 (X11; Ubuntu; Linux x86_64; rv:129.0) Gecko/20100101 Firefox/129.0" version="24.7.7">
  <diagram name="Page-1" id="40RVQB_Q4bnCAyTE-xXS">
    <mxGraphModel dx="683" dy="331" grid="1" gridSize="10" guides="1" tooltips="1" connect="1" arrows="1" fold="1" page="1" pageScale="1" pageWidth="850" pageHeight="1100" math="0" shadow="0">
      <root>
        <mxCell id="0" />
        <mxCell id="1" parent="0" />
        <mxCell id="WSztid49rb8M9noHrNsQ-1" value="&lt;h1&gt;Instrument Cluster&lt;/h1&gt;" style="rounded=1;whiteSpace=wrap;html=1;fillColor=#f8cecc;strokeColor=#b85450;" parent="1" vertex="1">
          <mxGeometry x="278" y="40" width="295" height="60" as="geometry" />
        </mxCell>
        <mxCell id="WSztid49rb8M9noHrNsQ-2" value="Speed Sensor" style="rounded=0;whiteSpace=wrap;html=1;fillColor=#f8cecc;strokeColor=#b85450;" parent="1" vertex="1">
          <mxGeometry x="365.5" y="150" width="120" height="60" as="geometry" />
        </mxCell>
        <mxCell id="WSztid49rb8M9noHrNsQ-3" value="Arduino (UNO)" style="rounded=0;whiteSpace=wrap;html=1;fillColor=#f8cecc;strokeColor=#b85450;" parent="1" vertex="1">
          <mxGeometry x="365" y="340" width="120" height="60" as="geometry" />
        </mxCell>
        <mxCell id="WSztid49rb8M9noHrNsQ-4" value="RaspberryPi" style="rounded=0;whiteSpace=wrap;html=1;fillColor=#f8cecc;strokeColor=#b85450;" parent="1" vertex="1">
          <mxGeometry x="365.5" y="540" width="120" height="60" as="geometry" />
        </mxCell>
        <mxCell id="WSztid49rb8M9noHrNsQ-5" value="Qt GUI" style="rounded=0;whiteSpace=wrap;html=1;fillColor=#f8cecc;strokeColor=#b85450;" parent="1" vertex="1">
          <mxGeometry x="365.5" y="780" width="120" height="60" as="geometry" />
        </mxCell>
        <mxCell id="WSztid49rb8M9noHrNsQ-6" value="Cross-Compiling of Qt for RaspberryPi" style="ellipse;whiteSpace=wrap;html=1;fillColor=#e1d5e7;strokeColor=#9673a6;" parent="1" vertex="1">
          <mxGeometry x="515" y="800" width="250" height="60" as="geometry" />
        </mxCell>
        <mxCell id="WSztid49rb8M9noHrNsQ-7" value="" style="endArrow=classic;html=1;rounded=0;exitX=0.5;exitY=1;exitDx=0;exitDy=0;entryX=0.5;entryY=0;entryDx=0;entryDy=0;" parent="1" source="WSztid49rb8M9noHrNsQ-2" target="WSztid49rb8M9noHrNsQ-3" edge="1">
          <mxGeometry width="50" height="50" relative="1" as="geometry">
            <mxPoint x="300" y="400" as="sourcePoint" />
            <mxPoint x="350" y="350" as="targetPoint" />
          </mxGeometry>
        </mxCell>
        <mxCell id="WSztid49rb8M9noHrNsQ-9" value="" style="endArrow=classic;html=1;rounded=0;entryX=0.5;entryY=0;entryDx=0;entryDy=0;exitX=0.5;exitY=1;exitDx=0;exitDy=0;" parent="1" source="WSztid49rb8M9noHrNsQ-4" target="WSztid49rb8M9noHrNsQ-5" edge="1">
          <mxGeometry width="50" height="50" relative="1" as="geometry">
            <mxPoint x="420" y="550" as="sourcePoint" />
            <mxPoint x="420" y="660" as="targetPoint" />
          </mxGeometry>
        </mxCell>
        <mxCell id="WSztid49rb8M9noHrNsQ-11" value="&lt;div&gt;DBus or SOMEIP?&lt;/div&gt;&lt;div&gt;&lt;br&gt;&lt;/div&gt;&lt;div&gt;DBus is easier and middleware IPC.&lt;/div&gt;&lt;div&gt;SOMEIP is AUTOSAR standard for middleware&lt;br&gt;&lt;/div&gt;&lt;div&gt;&lt;br&gt;&lt;/div&gt;" style="ellipse;whiteSpace=wrap;html=1;fillColor=#e1d5e7;strokeColor=#9673a6;" parent="1" vertex="1">
          <mxGeometry x="50" y="350" width="250" height="270" as="geometry" />
        </mxCell>
        <mxCell id="SmKFXsDIP-mhwsf8xTkx-1" value="CAN Shield" style="rounded=0;whiteSpace=wrap;html=1;fillColor=#f8cecc;strokeColor=#b85450;" vertex="1" parent="1">
          <mxGeometry x="580" y="340" width="120" height="60" as="geometry" />
        </mxCell>
        <mxCell id="SmKFXsDIP-mhwsf8xTkx-2" value="CAN HAT" style="rounded=0;whiteSpace=wrap;html=1;fillColor=#f8cecc;strokeColor=#b85450;" vertex="1" parent="1">
          <mxGeometry x="580" y="540" width="120" height="60" as="geometry" />
        </mxCell>
        <mxCell id="SmKFXsDIP-mhwsf8xTkx-3" value="" style="endArrow=classic;html=1;rounded=0;entryX=0;entryY=0.5;entryDx=0;entryDy=0;exitX=1;exitY=0.5;exitDx=0;exitDy=0;" edge="1" parent="1" source="WSztid49rb8M9noHrNsQ-3" target="SmKFXsDIP-mhwsf8xTkx-1">
          <mxGeometry width="50" height="50" relative="1" as="geometry">
            <mxPoint x="370" y="470" as="sourcePoint" />
            <mxPoint x="420" y="420" as="targetPoint" />
          </mxGeometry>
        </mxCell>
        <mxCell id="SmKFXsDIP-mhwsf8xTkx-4" value="" style="endArrow=classic;html=1;rounded=0;exitX=0.5;exitY=1;exitDx=0;exitDy=0;entryX=0.5;entryY=0;entryDx=0;entryDy=0;" edge="1" parent="1" source="SmKFXsDIP-mhwsf8xTkx-1" target="SmKFXsDIP-mhwsf8xTkx-2">
          <mxGeometry width="50" height="50" relative="1" as="geometry">
            <mxPoint x="630" y="500" as="sourcePoint" />
            <mxPoint x="680" y="450" as="targetPoint" />
          </mxGeometry>
        </mxCell>
        <mxCell id="SmKFXsDIP-mhwsf8xTkx-5" value="&lt;div&gt;Notes&lt;/div&gt;&lt;div&gt;&lt;br&gt;&lt;/div&gt;&lt;div&gt;Assemble the car&lt;br&gt;&lt;/div&gt;&lt;div&gt;Build a Qt App with&lt;/div&gt;&lt;div&gt;Cross-Compiling &lt;br&gt;&lt;/div&gt;&lt;div&gt;&lt;br&gt;&lt;/div&gt;" style="rounded=0;whiteSpace=wrap;html=1;fillColor=#ffe6cc;strokeColor=#d79b00;" vertex="1" parent="1">
          <mxGeometry x="60" y="700" width="210" height="300" as="geometry" />
        </mxCell>
        <mxCell id="SmKFXsDIP-mhwsf8xTkx-6" value="" style="endArrow=classic;html=1;rounded=0;exitX=0;exitY=0.5;exitDx=0;exitDy=0;entryX=1;entryY=0.5;entryDx=0;entryDy=0;" edge="1" parent="1" source="SmKFXsDIP-mhwsf8xTkx-2" target="WSztid49rb8M9noHrNsQ-4">
          <mxGeometry width="50" height="50" relative="1" as="geometry">
            <mxPoint x="510" y="540" as="sourcePoint" />
            <mxPoint x="560" y="490" as="targetPoint" />
          </mxGeometry>
        </mxCell>
        <mxCell id="SmKFXsDIP-mhwsf8xTkx-7" value="QWebEngineView" style="ellipse;whiteSpace=wrap;html=1;fillColor=#e1d5e7;strokeColor=#9673a6;" vertex="1" parent="1">
          <mxGeometry x="460" y="880" width="250" height="60" as="geometry" />
        </mxCell>
        <mxCell id="SmKFXsDIP-mhwsf8xTkx-8" value="Q" style="ellipse;whiteSpace=wrap;html=1;fillColor=#e1d5e7;strokeColor=#9673a6;" vertex="1" parent="1">
          <mxGeometry x="350" y="950" width="250" height="60" as="geometry" />
        </mxCell>
      </root>
    </mxGraphModel>
  </diagram>
</mxfile>
